<svg id="Capa_1" enable-background="new 0 0 512 512" height="512" viewBox="0 0 512 512" width="512" xmlns="http://www.w3.org/2000/svg"><g><path d="m46 150h90v60h-90z" fill="#ff435b"/><path d="m376 150h90v60h-90z" fill="#d0004f"/><path d="m256 240h-75l30 90 30 30h15 15l30-30 30-90z" fill="#ff435b"/><path d="m301 330 30-90h-75v120h15z" fill="#d0004f"/><path d="m198.095 84.946c-32.725-9.668-60.234-32.71-75.513-63.237-3.706-7.412-.703-16.421 6.709-20.127 7.427-3.691 16.406-.703 20.127 6.709 11.558 23.115 32.402 40.562 57.173 47.886 7.939 2.344 12.48 10.693 10.137 18.633-2.401 8.111-10.894 12.45-18.633 10.136z" fill="#fabe2c"/><path d="m295.272 74.81c-2.344-7.939 2.197-16.289 10.137-18.633 24.771-7.324 45.615-24.771 57.173-47.886 3.721-7.412 12.686-10.4 20.127-6.709 7.412 3.706 10.415 12.715 6.709 20.127-15.278 30.527-42.788 53.569-75.513 63.237-7.74 2.314-16.232-2.026-18.633-10.136z" fill="#ff9100"/><path d="m258.461 30.205c-.806-.132-1.633 0-2.461 0s-1.655-.132-2.461 0c-59.415 9.902-102.539 60.806-102.539 121.04v13.755c0 8.291 6.709 15 15 15h90 90c8.291 0 15-6.709 15-15v-13.755c0-60.234-43.126-111.138-102.539-121.04z" fill="#ff435b"/><path d="m361 165v-13.755c0-60.234-43.126-111.138-102.539-121.04-.806-.132-1.633 0-2.461 0v149.795h90c8.291 0 15-6.709 15-15z" fill="#d0004f"/><path d="m376 150h-120-120c-8.291 0-15 6.709-15 15 0 57.891 47.109 105 105 105h30 30c57.891 0 105-47.109 105-105 0-8.291-6.709-15-15-15z" fill="#ff7b4a"/><path d="m391 165c0-8.291-6.709-15-15-15h-120v120h30c57.891 0 105-47.109 105-105z" fill="#ff435b"/><path d="m106 467c8.276 0 15-6.724 15-15v-58.572c0-19.395 12.363-37.548 30.762-43.686l59.238-19.742 18.274 30-33.274 62v75c0 8.291-6.709 15-15 15h-75c-8.291 0-15-6.709-15-15v-15c0-8.291 6.709-15 15-15z" fill="#704c55"/><path d="m406 467c-8.276 0-15-6.724-15-15v-58.572c0-19.395-12.363-37.548-30.762-43.686l-59.238-19.742-18.274 30 33.274 62v75c0 8.291 6.709 15 15 15h75c8.291 0 15-6.709 15-15v-15c0-8.291-6.709-15-15-15z" fill="#5a344b"/><path d="m466 270c-8.291 0-15-6.709-15-15v-240c0-8.291 6.709-15 15-15s15 6.709 15 15v240c0 8.291-6.709 15-15 15z" fill="#ff9100"/><path d="m46 270c-8.291 0-15-6.709-15-15v-240c0-8.291 6.709-15 15-15s15 6.709 15 15v240c0 8.291-6.709 15-15 15z" fill="#fabe2c"/><path d="m296.605 124.395-30-30c-2.929-2.93-6.767-4.395-10.605-4.395s-7.676 1.465-10.605 4.395l-30 30c-2.813 2.812-4.395 6.621-4.395 10.605v30c0 24.814 20.186 45 45 45s45-20.186 45-45v-30c0-3.984-1.582-7.793-4.395-10.605z" fill="#ffe1ba"/><path d="m301 165v-30c0-3.984-1.582-7.793-4.395-10.605l-30-30c-2.929-2.93-6.767-4.395-10.605-4.395v120c24.814 0 45-20.186 45-45z" fill="#ffbfab"/><path d="m330.544 433.362-29.544-103.362h-45-45l-29.544 103.362c-2.368 9.466 4.794 18.638 14.551 18.638h59.993 59.993c9.757 0 16.919-9.172 14.551-18.638z" fill="#ff7b4a"/><path d="m330.544 433.362-29.544-103.362h-45v122h59.993c9.757 0 16.919-9.172 14.551-18.638z" fill="#ff435b"/></g></svg>